<svg class="svg-icon" style="width: 1em; height: 1em;vertical-align: middle;fill: currentColor;overflow: hidden;" viewBox="0 0 1024 1024" version="1.1" xmlns="http://www.w3.org/2000/svg"><path d="M512.4 343.5c-172.9 0-288.1 169.1-288.1 169.1s115.3 169.1 288.1 169.1c172.9 0 288.1-169.1 288.1-169.1S685.3 343.5 512.4 343.5z m0 280.6c-63.3 0-114.6-50.2-114.6-112.1 0-61.9 51.3-112.1 114.6-112.1S627.1 450.1 627.1 512s-51.4 112.1-114.7 112.1z"  /><path d="M453.8 511.3c0 14.7 6.2 29.3 16.8 39.7 10.6 10.4 25.5 16.4 40.5 16.4s29.9-6 40.5-16.4c10.6-10.4 16.8-25 16.8-39.7 0-14.7-6.2-29.3-16.8-39.7-10.6-10.4-25.5-16.4-40.5-16.4s-29.9 6-40.5 16.4c-10.7 10.4-16.8 25-16.8 39.7zM256 160h-50.6c-42.5 0-77.4 36.7-77.4 81.7V288h31.9c-0.2-15.6-0.5-31.1-0.7-46.7 0-26.9 20.8-48.9 46.2-49l50.6-0.3v-32zM768 864h50.6c42.5 0 77.4-36.7 77.4-81.7V736h-31.9c0.2 15.6 0.5 31.1 0.7 46.7 0 26.9-20.8 48.9-46.2 49l-50.6 0.3v32zM256 864h-50.6c-42.5 0-77.4-36.7-77.4-81.7V736h31.9c-0.2 15.6-0.5 31.1-0.7 46.7 0 26.9 20.8 48.9 46.2 49l50.6 0.3v32zM768 160h50.6c42.5 0 77.4 36.7 77.4 81.7V288h-31.9c0.2-15.6 0.5-31.1 0.7-46.7 0-26.9-20.8-48.9-46.2-49L768 192v-32z"  /></svg>