<?xml version="1.0" encoding="UTF-8" standalone="no"?>
<!DOCTYPE svg PUBLIC "-//W3C//DTD SVG 20010904//EN" "http://www.w3.org/TR/2001/REC-SVG-20010904/DTD/svg10.dtd">
<svg version="1.0" xmlns="http://www.w3.org/2000/svg" width="1024.000000pt" height="1024.000000pt" viewBox="0 0 1024.000000 1024.000000" preserveAspectRatio="xMidYMid meet">

<g transform="translate(0.000000,1024.000000) scale(0.100000,-0.100000)" fill="#000000" stroke="none">
<path d="M4540 9169 c-35 -14 -79 -58 -101 -100 -10 -20 -46 -171 -79 -335 -34 -165 -65 -308 -70 -320 -6 -15 -21 -23 -48 -28 -72 -11 -364 -112 -506 -175 -77 -33 -143 -61 -148 -61 -5 0 -100 87 -211 194 -326 312 -341 323 -419 297 -43 -14 -287 -202 -464 -357 -225 -198 -544 -530 -615 -643 -39 -60 -40 -123 -3 -177 26 -38 152 -181 352 -399 l101 -109 -39 -71 c-71 -130 -184 -420 -236 -605 -14 -52 -31 -100 -38 -107 -6 -6 -143 -41 -305 -78 -162 -36 -302 -70 -310 -75 -32 -17 -69 -66 -80 -105 -12 -44 -14 -634 -3 -772 12 -134 46 -162 227 -188 198 -29 440 -65 460 -70 16 -3 24 -20 39 -77 41 -163 140 -439 208 -580 l71 -147 -72 -85 c-39 -47 -135 -157 -212 -243 -78 -87 -152 -177 -166 -201 -33 -56 -33 -108 0 -164 25 -42 273 -318 285 -318 7 0 364 358 646 646 l138 142 -60 73 c-218 267 -410 673 -492 1039 -44 197 -55 307 -54 545 1 246 11 345 60 563 125 560 445 1061 929 1453 237 192 483 326 777 424 322 106 539 140 853 132 260 -7 434 -35 720 -117 84 -24 108 -27 150 -20 165 28 391 23 615 -16 273 -47 566 -157 800 -301 273 -168 542 -432 727 -710 72 -110 213 -374 213 -400 0 -31 20 -9 35 40 19 58 182 467 214 537 22 49 27 123 11 166 -12 31 -107 174 -179 269 -148 197 -456 519 -661 689 -163 136 -461 350 -560 402 -48 24 -127 24 -167 -1 -17 -11 -140 -125 -273 -252 -132 -128 -248 -233 -258 -233 -9 0 -53 16 -97 36 -188 83 -415 161 -622 214 -31 8 -44 17 -48 33 -3 12 -32 153 -64 314 -65 323 -81 370 -144 411 l-41 27 -380 2 c-239 1 -390 -2 -406 -8z"/>
<path d="M5755 7664 c-431 -67 -808 -253 -1119 -554 -274 -265 -462 -580 -555 -932 -44 -165 -61 -283 -68 -464 -13 -368 53 -697 205 -1012 l40 -83 -108 -113 -109 -112 216 -223 216 -222 88 87 c81 81 90 87 106 73 10 -8 47 -41 83 -73 72 -64 214 -160 330 -224 309 -168 767 -265 1100 -233 183 18 288 39 330 66 125 79 385 312 526 473 70 80 150 190 142 197 -2 2 -30 -17 -63 -41 -205 -154 -428 -251 -705 -308 -238 -49 -381 -56 -574 -31 -473 62 -831 261 -1124 623 -159 197 -287 485 -338 762 -22 116 -30 395 -15 517 45 368 201 703 449 964 264 278 550 438 914 511 94 19 145 23 303 23 266 0 434 -33 668 -132 401 -169 736 -502 914 -908 99 -227 217 -694 230 -914 12 -203 -60 -447 -272 -927 -104 -233 -192 -377 -334 -547 -170 -202 -484 -457 -693 -563 l-68 -34 -182 0 c-159 -1 -181 -2 -165 -15 18 -13 15 -16 -35 -41 -308 -161 -619 -245 -1008 -275 -248 -18 -547 12 -831 86 -22 6 -40 -10 -173 -150 -82 -86 -147 -158 -144 -160 2 -2 85 -28 183 -56 99 -28 181 -52 182 -53 1 -1 34 -154 72 -339 38 -186 76 -349 85 -362 9 -13 32 -36 53 -52 l36 -28 366 -3 c243 -2 378 0 403 8 49 14 91 50 112 97 9 21 45 182 79 357 43 219 67 322 77 327 8 4 67 22 130 40 193 53 366 115 568 205 l62 27 88 -84 c48 -46 160 -156 249 -244 90 -88 182 -170 205 -183 70 -38 136 -20 316 89 420 256 797 598 1116 1014 122 160 140 193 134 248 -3 29 -57 142 -167 355 l-163 313 44 96 c23 52 53 102 65 110 12 8 129 52 260 97 264 92 292 104 322 142 40 51 42 82 34 598 l-8 494 -31 39 c-17 21 -52 50 -78 64 -48 26 -444 165 -450 158 -2 -2 9 -54 24 -115 54 -213 64 -458 25 -634 -49 -221 -192 -399 -369 -460 l-53 -18 58 167 c87 253 104 347 103 571 0 214 -15 301 -90 529 -165 505 -531 944 -988 1187 -179 95 -437 178 -647 209 -134 19 -457 19 -584 -1z"/>
<path d="M3677 7093 c-32 -5 -29 2 -57 -123 l-21 -96 -44 -16 -44 -17 -78 61 c-43 33 -84 62 -91 65 -19 8 -122 -67 -122 -89 0 -10 9 -61 20 -113 l21 -94 -23 -31 c-13 -18 -28 -28 -36 -25 -30 11 -152 26 -192 23 -40 -3 -45 -6 -72 -55 l-29 -52 85 -89 85 -88 -11 -42 -10 -41 -87 -27 c-141 -43 -141 -43 -141 -123 l0 -68 93 -35 c50 -20 102 -39 114 -42 15 -5 24 -18 29 -41 6 -32 0 -41 -70 -124 -42 -49 -76 -94 -76 -101 0 -14 47 -107 57 -113 5 -2 58 2 118 9 l110 13 32 -37 c18 -20 32 -41 32 -47 0 -5 -12 -56 -28 -112 -27 -99 -27 -101 -8 -115 11 -7 37 -26 59 -41 l40 -29 85 59 c47 32 87 61 89 65 3 4 29 -4 58 -18 l52 -26 12 -95 c7 -53 15 -99 18 -104 3 -5 34 -9 68 -9 l63 0 -14 53 c-20 76 -41 226 -49 353 l-6 111 -64 27 c-296 129 -369 544 -138 786 91 96 199 140 344 140 l75 1 29 64 c38 86 115 213 180 300 l54 72 -28 17 -29 16 -45 -48 c-25 -27 -62 -70 -81 -95 -31 -41 -39 -46 -63 -41 -39 10 -62 23 -62 36 0 7 -16 54 -36 105 l-36 93 -52 -1 c-28 -1 -64 -4 -79 -6z"/>
<path d="M5775 7036 c-176 -37 -291 -83 -455 -179 -88 -52 -131 -87 -267 -221 -90 -87 -163 -163 -163 -168 0 -4 17 3 39 16 52 33 144 71 238 98 67 20 101 23 238 23 143 -1 170 -3 260 -28 220 -61 397 -179 557 -374 15 -18 29 -33 31 -33 3 0 29 16 58 36 83 57 245 130 339 153 180 45 383 35 558 -27 45 -16 82 -27 82 -25 0 3 -30 50 -67 106 -92 138 -273 321 -409 410 -172 114 -360 190 -543 221 -143 24 -359 20 -496 -8z"/>
<path d="M5255 6239 c-131 -22 -241 -77 -327 -164 -184 -186 -190 -501 -13 -663 68 -63 169 -106 324 -139 253 -53 326 -73 369 -100 118 -74 105 -221 -25 -284 -90 -43 -290 -36 -388 13 -22 12 -62 45 -90 75 -27 30 -61 61 -75 68 -71 35 -173 23 -215 -26 -123 -147 55 -369 360 -450 97 -26 315 -31 410 -10 91 20 217 83 276 138 64 59 124 150 145 217 18 60 19 195 3 263 -18 75 -68 160 -123 210 -87 79 -196 119 -456 168 -181 34 -260 69 -302 132 -35 55 -17 125 50 185 55 50 132 72 231 66 100 -6 160 -33 223 -102 60 -66 99 -86 168 -86 143 0 205 110 134 240 -60 110 -219 213 -376 245 -82 16 -221 18 -303 4z"/>
<path d="M6740 6054 c-36 -7 -108 -34 -159 -60 -181 -89 -319 -261 -372 -461 -24 -89 -28 -257 -9 -338 41 -177 153 -347 293 -445 279 -197 662 -161 902 85 82 83 128 156 166 263 56 159 59 343 8 497 -72 215 -271 398 -495 455 -91 24 -236 25 -334 4z m332 -352 c83 -41 158 -120 189 -200 18 -45 23 -77 24 -152 0 -87 -3 -101 -32 -163 -43 -90 -117 -167 -196 -203 -55 -26 -73 -29 -162 -29 -89 0 -107 3 -162 29 -114 52 -199 168 -224 302 -27 145 41 303 167 390 74 51 123 64 234 61 85 -2 103 -6 162 -35z"/>
<path d="M3767 4285 c-25 -13 -253 -242 -1202 -1205 -616 -625 -610 -618 -640 -705 -25 -72 -23 -213 4 -287 42 -120 139 -231 245 -281 83 -40 135 -49 238 -45 79 2 103 8 158 34 85 40 118 71 604 574 226 233 590 605 808 826 218 221 404 416 413 434 20 38 22 109 4 142 -17 33 -479 497 -511 514 -35 18 -85 18 -121 -1z"/>
</g>
</svg>