<svg id="Layer_1" data-name="Layer 1" xmlns="http://www.w3.org/2000/svg" viewBox="0 0 122.88 116.6"><title>faqs</title><path d="M17.72,45.43V21.12h16.8v5.32H24.21v4.18h9.28v5.31H24.21v9.5ZM16.67,0h66.5A16.7,16.7,0,0,1,99.84,16.67V51.36A16.7,16.7,0,0,1,83.17,68H45.46L20.16,89.78a2.81,2.81,0,0,1-4.62-2.31L16.89,68h-.22A16.7,16.7,0,0,1,0,51.36V16.67A16.7,16.7,0,0,1,16.67,0Zm93,24.65a16.42,16.42,0,0,1,13.26,16V77.85a16.37,16.37,0,0,1-16.33,16.32H106L107.34,114h0a2.46,2.46,0,0,1-4,2L77.89,93.53H38.26L54.74,76.77H95.82a13.9,13.9,0,0,0,13.85-13.86V25.75c0-.37,0-.74,0-1.1Zm-26.46-19H16.67a11.1,11.1,0,0,0-11,11.05V51.36a11.1,11.1,0,0,0,11.05,11h3.42a2.8,2.8,0,0,1,2.6,3L21.6,81.17l20.87-18a2.79,2.79,0,0,1,2-.81H83.16a11.1,11.1,0,0,0,11-11V16.67a11.1,11.1,0,0,0-11-11Zm-43,39.81h-7L41,21.12h8.87l7.88,24.31h-7L45.53,27.82h-.19L40.12,45.43Zm-1.31-9.59H52v4.94H38.81V35.84Zm29.35.57h5L75,38.74l3.08,3.55,4,5H76.37l-2.84-3.37-1.92-2.81-3.45-4.65Zm13.91-3.13a13.84,13.84,0,0,1-1.56,6.84,10.36,10.36,0,0,1-4.19,4.21,12.78,12.78,0,0,1-11.77,0,10.45,10.45,0,0,1-4.18-4.23,13.83,13.83,0,0,1-1.54-6.81,13.89,13.89,0,0,1,1.54-6.84,10.42,10.42,0,0,1,4.18-4.22,12.82,12.82,0,0,1,11.77,0,10.45,10.45,0,0,1,4.19,4.22,13.78,13.78,0,0,1,1.56,6.84Zm-6.68,0a10.35,10.35,0,0,0-.57-3.68,4.75,4.75,0,0,0-1.66-2.29,5.17,5.17,0,0,0-5.43,0,4.83,4.83,0,0,0-1.67,2.29,10.59,10.59,0,0,0-.56,3.68A10.63,10.63,0,0,0,66.06,37a4.8,4.8,0,0,0,1.67,2.28,5.12,5.12,0,0,0,5.43,0A4.72,4.72,0,0,0,74.82,37a10.38,10.38,0,0,0,.57-3.68Z"/></svg>